<svg xmlns="http://www.w3.org/2000/svg" xmlns:xlink="http://www.w3.org/1999/xlink" width="100" height="100" viewBox="0 0 100 100">
    <defs>
        <rect id="b" width="500" height="412" rx="8"/>
        <filter id="a" width="108.2%" height="110%" x="-4.1%" y="-3.8%" filterUnits="objectBoundingBox">
            <feMorphology in="SourceAlpha" operator="dilate" radius="1" result="shadowSpreadOuter1"/>
            <feOffset dy="5" in="shadowSpreadOuter1" result="shadowOffsetOuter1"/>
            <feGaussianBlur in="shadowOffsetOuter1" result="shadowBlurOuter1" stdDeviation="5"/>
            <feColorMatrix in="shadowBlurOuter1" values="0 0 0 0 0 0 0 0 0 0 0 0 0 0 0 0 0 0 0.377292799 0"/>
        </filter>
        <circle id="c" cx="50" cy="50" r="50"/>
        <linearGradient id="f" x1="81.641%" x2="94.194%" y1="72.387%" y2="8.309%">
            <stop offset="0%" stop-color="#EDAE7E"/>
            <stop offset="100%" stop-color="#FAEEDE"/>
        </linearGradient>
        <path id="e" d="M8 0h484a8 8 0 0 1 8 8v150H0V8a8 8 0 0 1 8-8z"/>
        <linearGradient id="g" x1="56.08%" x2="79.374%" y1="44.293%" y2="4.043%">
            <stop offset="0%" stop-color="#EDAE7E"/>
            <stop offset="100%" stop-color="#FAEEDE"/>
        </linearGradient>
        <linearGradient id="i" x1="79.37%" x2="97.27%" y1="21.421%" y2="-3.967%">
            <stop offset="0%" stop-color="#EDAE7E"/>
            <stop offset="100%" stop-color="#FAEEDE"/>
        </linearGradient>
    </defs>
    <g fill="none" fill-rule="evenodd">
        <path fill="#565656" d="M-957-394h3180v953H-957z"/>
        <g transform="translate(-200 -144)">
            <use fill="#000" filter="url(#a)" xlink:href="#b"/>
            <use fill="#FFF" xlink:href="#b"/>
        </g>
        <g>
            <mask id="d" fill="#fff">
                <use xlink:href="#c"/>
            </mask>
            <g mask="url(#d)">
                <g transform="translate(-395 -17)">
                    <mask id="h" fill="#fff">
                        <use xlink:href="#e"/>
                    </mask>
                    <use fill="url(#f)" xlink:href="#e"/>
                    <path fill="url(#g)" d="M529.932 175.65c115.704 0 71.84-143.455-22.072-143.455S459.307 60.59 355.59 70.179C118.785 92.071 376.688 46.2 237.376 99.706c-232.521 89.308 176.852 75.943 292.556 75.943z" mask="url(#h)"/>
                    <path fill="url(#g)" d="M417.035 340.5c115.703 0 209.5-64.247 209.5-143.5 0-50.672-91.957-149.82-142.56-127.59-38.87 17.074-74.614-39.242-115.222-19.37-90.396 44.239-74.277 98.29-213.589 151.797C-77.356 291.145 301.331 340.5 417.034 340.5z" mask="url(#h)"/>
                    <path fill="url(#i)" d="M340.035 366.5c115.703 0 168.178-118.017 168.178-197.27 0-79.253-2.755-110.059-258.213-55.516-66.828 14.268-128.776-42.276-208.049-39.493C-265.696 85.018 224.331 366.5 340.035 366.5z" mask="url(#h)"/>
                </g>
            </g>
        </g>
    </g>
</svg>
