<?xml version="1.0" encoding="UTF-8"?>
<svg width="24px" height="24px" viewBox="0 0 24 24" version="1.1" xmlns="http://www.w3.org/2000/svg" xmlns:xlink="http://www.w3.org/1999/xlink">
    <!-- Generator: Sketch 61 (89581) - https://sketch.com -->
    <title>编组 17</title>
    <desc>Created with Sketch.</desc>
    <g id="页面-1" stroke="none" stroke-width="1" fill="none" fill-rule="evenodd">
        <g id="菜单默认状态" transform="translate(-1314.000000, -13.000000)" fill-rule="nonzero">
            <g id="编组-17" transform="translate(1313.000000, 12.000000)">
                <g id="头像" transform="translate(1.000000, 1.000000)">
                    <path d="M0,12.000014 L0,12.0000158 C0,18.6274454 5.37258438,24.0000297 12.000014,24.0000297 C18.6274436,24.0000297 24.0000279,18.6274454 24.0000279,12.0000158 L24.0000279,12.0000158 C24.0000279,5.37258619 18.6274436,1.81195054e-06 12.000014,1.81195054e-06 C5.37258438,1.81195054e-06 0,5.37258619 0,12.0000158 L0,12.000014 Z" id="路径" fill="#CDDFFF"></path>
                    <path d="M7.71429804,10.2857229 L7.71429804,10.2857223 C7.71429804,12.6526548 9.63307918,14.5714382 12.000014,14.5714382 C14.3669464,14.5714382 16.2857299,12.6526571 16.2857299,10.2857223 C16.2857299,10.2857223 16.2857299,10.2857222 16.2857299,10.2857222 L16.2857299,10.2857222 C16.2857299,7.91878975 14.3669487,6.00000627 12.000014,6.00000627 C9.63308152,6.00000627 7.71429804,7.91878741 7.71429804,10.2857222 L7.71429804,10.2857229 Z" id="路径" fill="#FFFFFF"></path>
                    <path d="M4.28571592,19.714312 C4.28571592,19.714312 6.00000464,15.4285961 12.000014,15.4285961 C18.0000209,15.4285961 19.714312,19.714312 19.714312,19.714312 C19.714312,19.714312 12.000014,26.5714528 4.28571592,19.714312 Z" id="路径" fill="#FFFFFF"></path>
                </g>
            </g>
        </g>
    </g>
</svg>